# xmcd CD database file
#
# Track frame offsets:
#	150
#	12059
#	23350
#	42515
#	54261
#	73164
#	89046
#	100694
#	113208
#	131425
#	145001
#	156647
#	168381
#	180736
#	192251
#	207929
#	220106
#	237369
#	251932
#
# Disc length: 3516 seconds
#
# Revision: 0
# Processed by: cddbd v1.5PL3 Copyright (c) Steve Scherf et al.
# Submitted via: CDex 1.51
#
DISCID=0e0dba13
DTITLE=Sojiro - Songs of Japan Songs of the Heart (Disc2)
DYEAR=1985
DGENRE=New Age
TTITLE0=(Chinese Titles)
TTITLE1=(Chinese Titles)
TTITLE2=(Chinese Titles)
TTITLE3=(Chinese Titles)
TTITLE4=(Chinese Titles)
TTITLE5=(Chinese Titles)
TTITLE6=(Chinese Titles)
TTITLE7=(Chinese Titles)
TTITLE8=(Chinese Titles)
TTITLE9=(Chinese Titles)
TTITLE10=(Chinese Titles)
TTITLE11=(Chinese Titles)
TTITLE12=(Chinese Titles)
TTITLE13=(Chinese Titles)
TTITLE14=(Chinese Titles)
TTITLE15=(Chinese Titles)
TTITLE16=(Chinese Titles)
TTITLE17=(Chinese Titles)
TTITLE18=Sojiro - (Chinese Titles)
EXTD=YEAR: 1985
EXTT0=
EXTT1=
EXTT2=
EXTT3=
EXTT4=
EXTT5=
EXTT6=
EXTT7=
EXTT8=
EXTT9=
EXTT10=
EXTT11=
EXTT12=
EXTT13=
EXTT14=
EXTT15=
EXTT16=
EXTT17=
EXTT18=
PLAYORDER=
